<svg width="44" height="48" viewBox="0 0 44 48" fill="none" xmlns="http://www.w3.org/2000/svg">
<path d="M17.4681 2.99939C17.8333 2.11319 18.4598 1.35426 19.2672 0.819875C20.0746 0.285489 21.0262 0 22 0C22.9738 0 23.9254 0.285489 24.7328 0.819875C25.5402 1.35426 26.1667 2.11319 26.5319 2.99939C30.1466 3.97533 33.335 6.0892 35.6074 9.01636C37.8799 11.9435 39.1107 15.5221 39.1108 19.2025V30.4741L43.589 37.0686C43.8346 37.43 43.9757 37.8501 43.9971 38.284C44.0186 38.718 43.9197 39.1495 43.7109 39.5326C43.5021 39.9157 43.1913 40.2359 42.8117 40.4592C42.432 40.6824 41.9978 40.8003 41.5552 40.8002H30.4699C30.1755 42.7995 29.1574 44.6277 27.6018 45.9499C26.0463 47.2722 24.0576 48 22 48C19.9424 48 17.9537 47.2722 16.3982 45.9499C14.8426 44.6277 13.8245 42.7995 13.5301 40.8002H2.44477C2.00223 40.8003 1.56797 40.6824 1.18832 40.4592C0.808679 40.2359 0.497889 39.9157 0.289114 39.5326C0.0803378 39.1495 -0.0185915 38.718 0.00287914 38.284C0.0243498 37.8501 0.165415 37.43 0.411026 37.0686L4.88917 30.4741V19.2025C4.88917 11.4657 10.218 4.94799 17.4681 2.99939ZM18.5436 40.8002C18.7961 41.5025 19.2642 42.1106 19.8834 42.5408C20.5027 42.9709 21.2426 43.2019 22.0012 43.2019C22.7598 43.2019 23.4997 42.9709 24.119 42.5408C24.7383 42.1106 25.2064 41.5025 25.4588 40.8002H18.5412H18.5436ZM22 7.20375C18.7585 7.20375 15.6498 8.4679 13.3577 10.7181C11.0657 12.9683 9.77798 16.0202 9.77798 19.2025V31.2012C9.77809 31.6753 9.63519 32.1387 9.36732 32.5331L7.01336 36.0007H36.9842L34.6302 32.5331C34.3632 32.1384 34.2212 31.675 34.222 31.2012V19.2025C34.222 16.0202 32.9343 12.9683 30.6423 10.7181C28.3502 8.4679 25.2415 7.20375 22 7.20375Z" fill="#8D562B"/>
</svg>
